<svg xmlns="http://www.w3.org/2000/svg" width="2000" height="2000" version="1.1"><path fill="#D6F4E2" d="M0 0 C660 0 1320 0 2000 0 C2000 660 2000 1320 2000 2000 C1340 2000 680 2000 0 2000 C0 1340 0 680 0 0 Z" transform="translate(0,0)"/><path fill="#1DC257" d="M0 0 C5.38523385 0.00574775 10.77041882 0.00226602 16.15565109 -0.00343704 C35.54129799 -0.02088159 54.92210183 -0.01519486 74.30029297 0.57568359 C75.57677704 0.61442596 76.85326111 0.65316833 78.16842651 0.69308472 C84.98181813 0.92933908 91.7593862 1.34740854 98.55404663 1.90042114 C102.75057616 2.22333 106.94633558 2.40414442 111.15185547 2.56005859 C112.9508575 2.6318827 114.7498479 2.70399887 116.54882812 2.77636719 C117.48237122 2.81332703 118.41591431 2.85028687 119.37774658 2.8883667 C157.11899327 4.40339067 194.75301746 6.74736033 232.35211182 10.35926819 C238.83688945 10.97885684 245.3247999 11.5502258 251.81591797 12.09912109 C275.66589694 14.1243309 299.41633401 16.61645914 323.16699219 19.58837891 C326.85362906 20.04817907 330.54260357 20.48270581 334.23388672 20.90380859 C359.1239848 23.77830479 384.36215568 27.46414394 408.54248047 34.13037109 C409.20376953 34.30858398 409.86505859 34.48679687 410.54638672 34.67041016 C446.05584508 44.4086101 480.22192099 62.01135254 509.54248047 84.13037109 C510.07454102 84.52643555 510.60660156 84.9225 511.15478516 85.33056641 C525.45142361 95.97809283 538.67051039 107.81488913 551.54248047 120.13037109 C552.32631104 120.87915527 552.32631104 120.87915527 553.12597656 121.64306641 C558.92484775 127.21590888 564.24651058 132.98690279 569.24951172 139.28271484 C571.23501487 141.7485271 573.28634403 144.13497273 575.375 146.51318359 C587.00379775 159.85591946 596.81061304 174.76258383 605.54248047 190.13037109 C606.18564209 191.2426709 606.18564209 191.2426709 606.84179688 192.37744141 C614.07127309 204.90784963 620.33473153 217.62931687 625.54248047 231.13037109 C625.91083008 232.08073242 626.27917969 233.03109375 626.65869141 234.01025391 C655.38708377 309.83028684 660.48168563 399.9569362 663.43560791 480.25897217 C663.51094318 482.28304283 663.58931054 484.30700175 663.66986084 486.33087158 C664.59148934 509.68058859 664.78092336 533.01466208 664.79248047 556.38037109 C664.79351147 557.33789402 664.79454247 558.29541695 664.79560471 559.28195572 C664.82334098 586.82443615 664.4154248 614.30512042 663.10498047 641.81787109 C663.05432182 642.89014702 663.05432182 642.89014702 663.00263977 643.98408508 C662.78019313 648.66246073 662.54350847 653.33994085 662.29638672 658.01708984 C662.23590652 659.16906357 662.17542633 660.32103729 662.1131134 661.50791931 C661.83244128 666.45554037 661.44847028 671.25120925 660.54248047 676.13037109 C660.40720718 677.7559406 660.2993802 679.3840136 660.21826172 681.01318359 C657.76398637 724.05739733 651.3183476 766.74224957 644.04376221 809.19824219 C643.58540578 811.87928967 643.13281343 814.56122478 642.68261719 817.24365234 C635.73367451 858.46228937 622.95195441 897.63376437 600.54248047 933.13037109 C600.14738281 933.75814453 599.75228516 934.38591797 599.34521484 935.03271484 C589.38906992 950.70834728 577.86644595 965.25958778 565.54248047 979.13037109 C565.09195312 979.63874512 564.64142578 980.14711914 564.17724609 980.67089844 C554.27749576 991.78824581 543.99502084 1002.70280289 532.29248047 1011.93896484 C529.82822402 1013.9026692 527.44297306 1015.93521201 525.06787109 1018.00512695 C496.52091919 1042.72913988 462.81118251 1061.00455062 427.54248047 1074.13037109 C426.82382813 1074.40187988 426.10517578 1074.67338867 425.36474609 1074.953125 C383.77130998 1090.46920175 336.89395784 1093.44836288 293.065979 1097.87506104 C283.16149313 1098.87712814 273.26312473 1099.88615151 263.39013672 1101.16552734 C255.26778179 1102.2001258 247.13988631 1102.91599955 238.97998047 1103.56787109 C237.40981946 1103.69533652 235.83967002 1103.82294458 234.26953125 1103.95068359 C230.99499211 1104.21610324 227.72024377 1104.47872253 224.4453125 1104.73925781 C221.25851314 1104.99280603 218.07199654 1105.24945871 214.88574219 1105.50976562 C132.55324199 1112.22803208 50.13706812 1115.14191042 -32.45751953 1114.13037109 C-33.72404232 1114.11502319 -33.72404232 1114.11502319 -35.01615143 1114.09936523 C-108.44226736 1113.19253097 -181.61891699 1109.10977893 -254.68457031 1101.80175781 C-260.75090377 1101.19618052 -266.81991168 1100.62611929 -272.89111328 1100.07177734 C-368.51791252 1091.28044544 -455.64149122 1077.69400239 -565.02392578 980.18505859 C-566.46341066 978.41853512 -567.88833681 976.64003324 -569.29736328 974.84912109 C-571.26346668 972.37460397 -573.30481815 969.98580322 -575.38232422 967.60473633 C-586.99474185 954.22103683 -596.51527798 939.38906285 -605.45751953 924.13037109 C-606.10333984 923.03837402 -606.10333984 923.03837402 -606.76220703 921.92431641 C-613.72655834 910.07964316 -619.36605167 897.884591 -624.45751953 885.13037109 C-624.97958984 883.84767334 -624.97958984 883.84767334 -625.51220703 882.5390625 C-649.53127811 822.97673257 -654.70031677 751.39774447 -659.41918945 687.74316406 C-659.50031731 686.64894638 -659.50031731 686.64894638 -659.58308411 685.53262329 C-659.69248468 684.05590441 -659.80152135 682.57915852 -659.91020203 681.10238647 C-660.28528164 676.11217341 -660.73293031 671.13188225 -661.20910645 666.15036011 C-662.34955731 654.15229504 -663.11663747 642.17313449 -663.58251953 630.13037109 C-663.62421265 629.06730743 -663.66590576 628.00424377 -663.7088623 626.90896606 C-664.60978068 602.82634065 -664.67810427 578.73480648 -664.70339203 554.63812256 C-664.70744094 551.62633114 -664.71493152 548.61456567 -664.72320557 545.6027832 C-664.81233613 508.38786582 -663.70738741 471.21559811 -660.45751953 434.13037109 C-660.39119324 433.37020691 -660.32486694 432.61004272 -660.25653076 431.82684326 C-659.01789124 417.70283208 -657.61652832 403.6002605 -656.08251953 389.50537109 C-655.97391602 388.50634766 -655.8653125 387.50732422 -655.75341797 386.47802734 C-653.0198784 361.45378759 -649.36070067 336.64557447 -645.09423828 311.83544922 C-644.67432974 309.39199371 -644.25759097 306.94799106 -643.84423828 304.50341797 C-634.00110513 246.36542827 -614.65255583 193.73204941 -576.45751953 148.13037109 C-576.04147461 147.63085938 -575.62542969 147.13134766 -575.19677734 146.61669922 C-562.62221258 131.53446387 -549.54611771 116.76530938 -534.45751953 104.13037109 C-533.53068359 103.32599609 -532.60384766 102.52162109 -531.64892578 101.69287109 C-492.94198905 68.21430913 -446.5673725 42.38800301 -396.45751953 31.13037109 C-395.25047363 30.85700928 -395.25047363 30.85700928 -394.01904297 30.578125 C-388.19033063 29.28379731 -382.33550452 28.17583484 -376.45751953 27.13037109 C-375.40290527 26.94120117 -374.34829102 26.75203125 -373.26171875 26.55712891 C-352.37181573 22.86700523 -331.38916648 20.3363576 -310.31074524 18.008255 C-304.86703315 17.40582019 -299.42875605 16.7705131 -293.99267578 16.10302734 C-270.91836369 13.30784588 -247.76075869 11.59191315 -224.5859375 9.88037109 C-222.54603716 9.72945746 -220.50614385 9.57845 -218.46626091 9.42730141 C-216.47203716 9.27959455 -214.47778652 9.13225083 -212.48353577 8.98490906 C-205.06070824 8.42823442 -197.65281057 7.79267011 -190.24658203 7.04833984 C-180.26748888 6.0497621 -170.28688115 5.51867406 -160.27001953 5.06787109 C-147.16977621 4.50465554 -147.16977621 4.50465554 -134.11010742 3.38256836 C-112.77403381 1.35402128 -91.15839591 1.01653436 -69.74267578 0.57568359 C-68.75125957 0.55474766 -67.75984337 0.53381172 -66.73838425 0.51224136 C-44.49270594 0.05183902 -22.24977437 -0.02391809 0 0 Z" transform="translate(999.45751953125,442.86962890625)"/><path fill="#FEFEFE" d="M0 0 C1.32168479 0.6738379 2.64371209 1.34700436 3.96606445 2.01953125 C14.30207688 7.29721311 24.526386 12.77464463 34.6640625 18.42382812 C37.73856602 20.13259145 40.82188465 21.82473185 43.90625 23.515625 C58.84217335 31.72620595 73.56655827 40.25057412 88.18457031 49.01367188 C91.48155627 50.98895006 94.78322684 52.95618662 98.0859375 54.921875 C109.02020086 61.44061654 119.8775742 68.05768339 130.61328125 74.8984375 C135.25609605 77.85496964 139.92890583 80.76205122 144.60351562 83.66796875 C153.34790409 89.1067504 162.02933673 94.60509584 170.56640625 100.36328125 C175.50906817 103.69169496 180.50646027 106.93614343 185.5 110.1875 C186.48194336 110.82703613 187.46388672 111.46657227 188.47558594 112.12548828 C190.48667464 113.43495082 192.49790624 114.74419393 194.50927734 116.05322266 C199.27873578 119.15784809 204.04570266 122.26629086 208.8125 125.375 C209.7506958 125.98674072 210.6888916 126.59848145 211.65551758 127.22875977 C217.89061495 131.29521943 224.12187672 135.36750913 230.35131836 139.44262695 C235.73324571 142.96323058 241.116232 146.48221182 246.5 150 C247.85569092 150.88582764 247.85569092 150.88582764 249.23876953 151.78955078 C259.47270807 158.47195012 269.75055129 165.07963421 280.07250977 171.62524414 C286.81200606 175.90647911 293.50715481 180.25214668 300.1875 184.625 C310.22560646 191.19115393 320.3345034 197.63325126 330.5 204 C331.85399902 204.84981445 331.85399902 204.84981445 333.23535156 205.71679688 C345.95194919 213.69770755 358.7065471 221.61416133 371.50805664 229.45800781 C374.50926996 231.29911429 377.50609592 233.14703361 380.5 235 C381.49660645 235.61552734 382.49321289 236.23105469 383.52001953 236.86523438 C390.18187183 241.03182274 395.82074714 245.57445947 401.5 251 C402.12648438 251.55171875 402.75296875 252.1034375 403.3984375 252.671875 C414.87108659 263.15818774 422.07761127 279.06303263 422.90625 294.49609375 C423.48220946 316.61034433 418.14991709 333.35937969 402.78125 349.67578125 C402.0284375 350.44277344 401.275625 351.20976563 400.5 352 C399.8709375 352.65355469 399.241875 353.30710937 398.59375 353.98046875 C390.9507354 361.33535383 381.51075314 366.51730952 372.5 372 C371.58814941 372.55494141 370.67629883 373.10988281 369.73681641 373.68164062 C365.91382536 376.00584918 362.08974524 378.32824405 358.26342773 380.64697266 C348.82619912 386.37854076 339.51670156 392.30177505 330.22070312 398.25878906 C326.62054899 400.56283602 323.01316889 402.85542135 319.40551758 405.14770508 C314.76802262 408.09482417 310.133991 411.04737553 305.5 414 C304.51660645 414.62632324 303.53321289 415.25264648 302.52001953 415.89794922 C287.01966025 425.77536131 271.60459656 435.77694854 256.23742676 445.86016846 C250.70127817 449.49213554 245.16295267 453.12078464 239.625 456.75 C239.01140625 457.15215729 238.3978125 457.55431458 237.765625 457.96865845 C227.7557687 464.52884549 217.73335604 471.06936426 207.69091797 477.57958984 C205.58630314 478.94404817 203.48256117 480.30984364 201.37890625 481.67578125 C190.95958995 488.43530644 180.49974721 495.13115097 170.03515625 501.8203125 C165.74840493 504.56061397 161.46459885 507.30541817 157.18359375 510.0546875 C134.40447715 524.67844972 111.44816957 538.92574673 88.13186646 552.67436218 C84.25406376 554.96139333 80.38329967 557.25960797 76.51953125 559.5703125 C-18.80116663 616.49842825 -18.80116663 616.49842825 -51.4375 611.3828125 C-54.62440736 610.48251117 -57.49345494 609.38763618 -60.5 608 C-61.37760986 607.5973291 -61.37760986 607.5973291 -62.27294922 607.18652344 C-71.96024506 602.6411204 -80.26858596 596.78690406 -88.5 590 C-89.19867187 589.443125 -89.89734375 588.88625 -90.6171875 588.3125 C-106.2203449 575.55258462 -116.57334219 557.60126206 -123.5 539 C-123.82097656 538.17371094 -124.14195312 537.34742188 -124.47265625 536.49609375 C-129.18832602 523.62871342 -129.30904622 509.03258496 -130.4375 495.5 C-130.61235205 493.43064743 -130.78740394 491.36131173 -130.96264648 489.29199219 C-131.31445243 485.12910698 -131.66332266 480.9659877 -132.01074219 476.80273438 C-132.36215706 472.60802983 -132.72496898 468.41460338 -133.1038208 464.22229004 C-137.89806433 410.51108362 -138.97343151 356.97707313 -138.8291648 303.09177577 C-138.81138138 296.00767388 -138.81224593 288.92366753 -138.8177436 281.8395502 C-138.82350129 274.00560248 -138.81773243 266.17170349 -138.80657005 258.33776283 C-138.80203236 255.0766131 -138.80100085 251.81549421 -138.8031559 248.55434227 C-138.81061393 229.67763112 -138.27409423 211.01574206 -136.74570274 192.19137192 C-136.33241667 186.82330178 -136.02619737 181.4492173 -135.71875 176.07421875 C-135.59771717 173.9993454 -135.4766311 171.92447516 -135.35546875 169.84960938 C-135.17675085 166.75974819 -134.99899262 163.6698376 -134.82275391 160.57983398 C-133.69396829 140.86319642 -132.32132252 121.17713237 -129.98828125 101.5625 C-129.60953361 98.23246247 -129.33667852 94.90596891 -129.10546875 91.5625 C-126.81481988 59.38248849 -111.72053951 31.6107857 -87.41015625 10.30859375 C-59.51637586 -11.81922398 -31.92452533 -16.53647456 0 0 Z" transform="translate(916.5,699)"/></svg>